<?xml version="1.0" encoding="UTF-8"?>
<svg id="Layer_1" xmlns="http://www.w3.org/2000/svg" xmlns:xlink="http://www.w3.org/1999/xlink" viewBox="0 0 1080 1080">
  <defs>
    <style>
      .cls-1 {
        fill: url(#linear-gradient-13);
      }

      .cls-2 {
        fill: url(#linear-gradient-2);
      }

      .cls-3 {
        fill: url(#linear-gradient-10);
      }

      .cls-4 {
        fill: url(#linear-gradient-12);
      }

      .cls-5 {
        fill: #f3b833;
      }

      .cls-6 {
        fill: url(#linear-gradient-4);
      }

      .cls-7 {
        fill: url(#linear-gradient-3);
      }

      .cls-8 {
        fill: url(#linear-gradient-5);
      }

      .cls-9 {
        fill: url(#linear-gradient-8);
      }

      .cls-10 {
        fill: url(#linear-gradient-14);
      }

      .cls-11 {
        fill: url(#linear-gradient-7);
      }

      .cls-12 {
        fill: url(#linear-gradient-9);
      }

      .cls-13 {
        fill: url(#linear-gradient-11);
      }

      .cls-14 {
        fill: url(#linear-gradient-6);
      }

      .cls-15 {
        fill: url(#linear-gradient);
      }
    </style>
    <linearGradient id="linear-gradient" x1="440.95" y1="526.94" x2="848.13" y2="526.94" gradientUnits="userSpaceOnUse">
      <stop offset="0" stop-color="#fff"/>
      <stop offset="1" stop-color="#fff"/>
    </linearGradient>
    <linearGradient id="linear-gradient-2" x1="237.84" y1="546.15" x2="645.04" y2="546.15" xlink:href="#linear-gradient"/>
    <linearGradient id="linear-gradient-3" x1="405.44" y1="581.36" x2="440.95" y2="581.36" gradientUnits="userSpaceOnUse">
      <stop offset="0" stop-color="#f3b833"/>
      <stop offset="1" stop-color="#fff"/>
    </linearGradient>
    <linearGradient id="linear-gradient-4" x1="354.92" y1="581.36" x2="390.43" y2="581.36" xlink:href="#linear-gradient-3"/>
    <linearGradient id="linear-gradient-5" x1="383.72" y1="555.05" x2="413.19" y2="555.05" xlink:href="#linear-gradient-3"/>
    <linearGradient id="linear-gradient-6" x1="383.74" y1="608.69" x2="413.21" y2="608.69" xlink:href="#linear-gradient-3"/>
    <linearGradient id="linear-gradient-7" x1="677.72" y1="456.92" x2="705.55" y2="456.92" xlink:href="#linear-gradient-3"/>
    <linearGradient id="linear-gradient-8" x1="711.94" y1="490.62" x2="739.77" y2="490.62" xlink:href="#linear-gradient-3"/>
    <linearGradient id="linear-gradient-9" x1="678.22" y1="524.87" x2="706.05" y2="524.87" xlink:href="#linear-gradient-3"/>
    <linearGradient id="linear-gradient-10" x1="644" y1="490.62" x2="671.83" y2="490.62" xlink:href="#linear-gradient-3"/>
    <linearGradient id="linear-gradient-11" x1="707.32" y1="368.79" x2="844.05" y2="368.79" xlink:href="#linear-gradient-3"/>
    <linearGradient id="linear-gradient-12" x1="242.31" y1="694.9" x2="368.18" y2="694.9" xlink:href="#linear-gradient-3"/>
    <linearGradient id="linear-gradient-13" x1="440.95" y1="450.48" x2="590.93" y2="450.48" xlink:href="#linear-gradient-3"/>
    <linearGradient id="linear-gradient-14" x1="495.31" y1="619.66" x2="645.04" y2="619.66" xlink:href="#linear-gradient-3"/>
  </defs>
  <path class="cls-15" d="M702.69,413.68l-71.97-.61,76.6-82.24c36.39-39.07,98.13-39.54,135.11-1.03h0s5.69,377.32,5.69,377.32c.6,39.94-47.45,60.61-76.03,32.69l-331.15-323.45,70.37-4.31,254.72,245.88-2.28-309.17-61.07,64.91Z"/>
  <path class="cls-2" d="M383.3,656.33l71.97.61-87.09,93.49c-30.7,32.96-82.78,33.35-113.98.87l-10.65-11.09-5.7-378.11c-.6-39.65,47.11-60.17,75.47-32.46l331.72,324.01-70.37,4.31-254.72-245.88,2.28,309.17,61.07-64.91Z"/>
  <path class="cls-7" d="M420.05,566.63h19.58c.72,0,1.31.59,1.31,1.31v26.81c0,.74-.6,1.35-1.35,1.35h-19.55l-14.36-14.13c-.34-.33-.34-.87,0-1.2l14.36-14.13Z"/>
  <path class="cls-6" d="M375.81,566.63h-19.58c-.72,0-1.31.59-1.31,1.31v26.81c0,.74.6,1.35,1.35,1.35h19.55s14.36-14.13,14.36-14.13c.34-.33.34-.87,0-1.2l-14.36-14.13Z"/>
  <path class="cls-8" d="M383.73,558.19v-19.58c0-.72.58-1.31,1.3-1.31h26.81c.74,0,1.35.59,1.35,1.34v19.55s-14.12,14.37-14.12,14.37c-.33.34-.87.34-1.2,0l-14.14-14.36Z"/>
  <path class="cls-14" d="M383.74,605.55v19.58c0,.72.59,1.31,1.32,1.31h26.81c.74,0,1.35-.61,1.35-1.36v-19.55s-14.14-14.36-14.14-14.36c-.33-.34-.87-.33-1.2,0l-14.13,14.37Z"/>
  <circle class="cls-11" cx="691.63" cy="456.92" r="13.91"/>
  <circle class="cls-9" cx="725.85" cy="490.62" r="13.91"/>
  <circle class="cls-12" cx="692.14" cy="524.87" r="13.91"/>
  <circle class="cls-3" cx="657.91" cy="490.62" r="13.91"/>
  <path class="cls-13" d="M707.32,330.84s70.93-7.73,136.73,106.14l-1.62-107.17s-62.89-66.41-135.11,1.03Z"/>
  <path class="cls-4" d="M242.31,613.41s38.63,76.44,76.03,103.85c18.54,13.58,36.77,26.11,49.84,33.18,0,0-61.42,64.7-124.63-10.23l-1.24-126.79Z"/>
  <path class="cls-5" d="M619.6,411.98c26.5-32.28,54.11-63.59,82.04-94.61,3.98-4.48,8.21-9.05,12.87-12.93,14.03-12.27,32.94-18.06,51.41-17.8,12.17.07,24.4.59,36.08,4.17,5.84,1.82,11.46,4.32,16.67,7.46,10.37,6.29,18.93,15.13,25.37,25.32-7.35-9.2-16.38-17.3-26.85-22.7-13-7.03-27.8-9.06-42.35-8.95-20.35-.76-40.82,3.32-56.42,17.15-4.54,3.72-8.44,7.9-12.42,12.3-28.24,30.73-56.77,61.15-86.4,90.58h0Z"/>
  <path class="cls-5" d="M232.79,629.52c1.43,31.4,1.55,62.81,1.89,94.22.59,9.04,3.21,17.95,7.65,25.85,5.5,9.9,14.15,17.48,23.59,23.51,14.08,9.27,30.62,16.17,47.68,15.04,11.36-.65,22.66-3.47,32.78-8.92,10.18-5.35,18.92-13.3,26.3-22.39-9.35,14.95-23.99,27.16-41.09,32.48-25,8.13-47.34,2.87-68.92-11.21-10.34-6.42-19.68-14.77-25.53-25.59-5.2-9.38-8.02-20.06-7.96-30.79.59-30.76,1.71-61.46,3.61-92.18h0Z"/>
  <polygon class="cls-1" points="440.95 416.37 511.32 412.06 590.93 488.91 440.95 416.37"/>
  <polygon class="cls-10" points="645.04 653.65 574.66 657.96 495.31 581.36 645.04 653.65"/>
</svg>